<?xml version="1.0" standalone="no"?>
<svg version="1.0" xmlns="http://www.w3.org/2000/svg" viewBox="0 0 254.000000 252.000000"
 preserveAspectRatio="xMidYMid meet">
<g transform="translate(0.000000,252.000000) scale(0.100000,-0.100000)"
fill="none" stroke-width="100" stroke="white">
<path fill="white" d="M821 2093 c-119 -127 -155 -196 -160 -307 -4 -105 11 -171 59 -244
67 -104 175 -159 262 -133 183 55 198 357 26 517 l-53 49 -5 105 c-4 86 -8
105 -21 108 -10 2 -52 -35 -108 -95z"/>
<path fill="white" d="M1440 2171 c-5 -11 -10 -60 -10 -109 l0 -90 -43 -35 c-79 -65 -145
-234 -130 -332 14 -94 76 -177 147 -196 71 -19 137 4 213 74 113 104 145 296
73 442 -30 63 -203 265 -226 265 -7 0 -18 -9 -24 -19z"/>
<path fill="white" d="M1933 1693 c-9 -3 -13 -32 -13 -94 l0 -89 -47 -35 c-81 -58 -134
-158 -135 -253 -2 -123 80 -195 193 -171 147 32 251 218 208 372 -8 29 -181
279 -191 276 -2 0 -9 -3 -15 -6z"/>
<path fill="white" d="M351 1590 c-101 -138 -111 -160 -111 -245 0 -154 119 -296 250 -298
116 -2 186 113 150 243 -16 59 -72 142 -120 178 l-45 35 -5 91 c-4 82 -7 91
-25 93 -15 2 -39 -22 -94 -97z"/>
<path d="M1118 1269 c-107 -25 -230 -95 -330 -187 -180 -167 -342 -496 -307
-625 14 -54 72 -114 121 -128 54 -14 107 -6 343 52 110 27 222 49 248 49 26 0
138 -22 250 -49 111 -28 223 -53 248 -56 65 -10 123 9 169 55 67 67 65 162 -6
323 -103 236 -255 412 -435 507 -120 63 -211 81 -301 59z"/>
</g>
</svg>
